<svg
  xmlns="http://www.w3.org/2000/svg"
  width="24"
  height="24"
  viewBox="0 0 24 24"
  fill="none"
  stroke="currentColor"
  stroke-width="2"
  stroke-linecap="round"
  stroke-linejoin="round"
>
  <path d=" M 15.594 6 Q 14.555 6.939 14.532 8.149 C 14.5 9.812 15.938 11.375 17.719 11.373 C 19.579 11.371 20.827 9.995 20.906 8.149 Q 20.969 6.688 19.844 6" />
  <path d=" M 9.376 15.438 Q 8.336 16.376 8.313 17.587 C 8.281 19.25 9.719 20.813 11.5 20.811 C 13.36 20.809 14.609 19.432 14.687 17.587 Q 14.75 16.125 13.626 15.438" />
  <path d=" M 4.063 6 Q 3.024 6.939 3.001 8.149 C 2.969 9.813 4.406 11.375 6.188 11.373 C 8.048 11.371 9.296 9.995 9.375 8.149 Q 9.438 6.688 8.313 6" />

</svg>