<svg
  xmlns="http://www.w3.org/2000/svg"
  width="24"
  height="24"
  viewBox="0 0 24 24"
  fill="none"
  stroke="currentColor"
  stroke-width="2"
  stroke-linecap="round"
  stroke-linejoin="round"
>
  <path d=" M 9.5 18 C 9.5 16.62 10.62 15.5 12 15.5 C 13.38 15.5 14.5 16.62 14.5 18 C 14.5 19.38 13.38 20.5 12 20.5 C 10.62 20.5 9.5 19.38 9.5 18 Z " />
  <path d=" M 10.5 18 C 10.5 17.172 11.172 16.5 12 16.5 C 12.828 16.5 13.5 17.172 13.5 18 C 13.5 18.828 12.828 19.5 12 19.5 C 11.172 19.5 10.5 18.828 10.5 18 Z " />
  <line x1="3" y1="18" x2="21" y2="18" />
  <line x1="3" y1="9" x2="21" y2="9" />
</svg>