<svg
  xmlns="http://www.w3.org/2000/svg"
  width="24"
  height="24"
  viewBox="0 0 24 24"
  fill="none"
  stroke="currentColor"
  stroke-width="2"
  stroke-linecap="round"
  stroke-linejoin="round"
>
  <path d=" M 21 17 L 18 20 C 18 20 17 21 16 20 C 15 19 16 18 16 18 L 18 16 C 18 16 19 15 18 14 C 17 13 16 14 16 14 L 14 16 C 14 16 13 17 12 16 C 11 15 12 14 12 14 L 14 12 C 14 12 15 11 14 10 C 13 9 12 10 12 10 L 10 12 C 10 12 9 13 8 12 C 7 11 8 10 8 10 L 10 8 C 10 8 11 7 10 6 C 9 5 8 6 8 6 L 6 8 C 6 8 5 9 4 8 C 3 7 4 6 4 6 L 7 3" />
  <line x1="6" y1="14" x2="10" y2="18" />
  <line x1="4" y1="12" x2="1" y2="9" />
  <line x1="15" y1="23" x2="12" y2="20" />
  <line x1="14" y1="6" x2="18" y2="10" />
  <line x1="12" y1="4" x2="9" y2="1" />
  <line x1="23" y1="15" x2="20" y2="12" />
</svg>