<svg
  xmlns="http://www.w3.org/2000/svg"
  width="24"
  height="24"
  viewBox="0 0 24 24"
  fill="none"
  stroke="currentColor"
  stroke-width="2"
  stroke-linecap="round"
  stroke-linejoin="round"
>
  <line x1="2" y1="22" x2="2" y2="22" />
  <line x1="7" y1="22" x2="7" y2="22" />
  <line x1="12" y1="22" x2="12" y2="22" />
  <line x1="17" y1="22" x2="17" y2="22" />
  <line x1="22" y1="22" x2="22" y2="22" />
  <line x1="2" y1="17" x2="2" y2="17" />
  <line x1="7" y1="17" x2="7" y2="17" />
  <line x1="12" y1="17" x2="12" y2="17" />
  <line x1="17" y1="17" x2="17" y2="17" />
  <line x1="22" y1="17" x2="22" y2="17" />
  <line x1="2" y1="12" x2="2" y2="12" />
  <line x1="7" y1="12" x2="7" y2="12" />
  <line x1="12" y1="12" x2="12" y2="12" />
  <line x1="17" y1="12" x2="17" y2="12" />
  <line x1="22" y1="12" x2="22" y2="12" />
  <line x1="2" y1="7" x2="2" y2="7" />
  <line x1="7" y1="7" x2="7" y2="7" />
  <line x1="12" y1="7" x2="12" y2="7" />
  <line x1="17" y1="7" x2="17" y2="7" />
  <line x1="22" y1="7" x2="22" y2="7" />
  <line x1="2" y1="2" x2="2" y2="2" />
  <line x1="7" y1="2" x2="7" y2="2" />
  <line x1="12" y1="2" x2="12" y2="2" />
  <line x1="17" y1="2" x2="17" y2="2" />
  <line x1="22" y1="2" x2="22" y2="2" />

</svg>